solid labeled_cube_diameter
  facet normal 0.000000 0.000000 -1.000000
    outer loop
      vertex 2.397000 0.000000 0.000000
      vertex 0.000000 0.000000 0.000000
      vertex 0.000000 2.397000 0.000000
    endloop
  endfacet
  facet normal 0.000000 0.000000 -1.000000
    outer loop
      vertex 0.000000 2.397000 0.000000
      vertex 2.397000 2.397000 0.000000
      vertex 2.397000 0.000000 0.000000
    endloop
  endfacet
  facet normal 0.000000 0.000000 1.000000
    outer loop
      vertex 0.000000 2.397000 2.397000
      vertex 0.000000 0.000000 2.397000
      vertex 2.397000 0.000000 2.397000
    endloop
  endfacet
  facet normal 0.000000 0.000000 1.000000
    outer loop
      vertex 2.397000 0.000000 2.397000
      vertex 2.397000 2.397000 2.397000
      vertex 0.000000 2.397000 2.397000
    endloop
  endfacet
  facet normal 0.000000 1.000000 0.000000
    outer loop
      vertex 2.397000 2.397000 0.000000
      vertex 0.000000 2.397000 0.000000
      vertex 0.000000 2.397000 2.397000
    endloop
  endfacet
  facet normal 0.000000 1.000000 0.000000
    outer loop
      vertex 0.000000 2.397000 2.397000
      vertex 2.397000 2.397000 2.397000
      vertex 2.397000 2.397000 0.000000
    endloop
  endfacet
  facet normal -1.000000 0.000000 0.000000
    outer loop
      vertex 0.000000 2.397000 0.000000
      vertex 0.000000 0.000000 0.000000
      vertex 0.000000 0.000000 2.397000
    endloop
  endfacet
  facet normal -1.000000 0.000000 0.000000
    outer loop
      vertex 0.000000 0.000000 2.397000
      vertex 0.000000 2.397000 2.397000
      vertex 0.000000 2.397000 0.000000
    endloop
  endfacet
  facet normal 1.000000 0.000000 0.000000
    outer loop
      vertex 2.397000 0.000000 2.397000
      vertex 2.397000 0.000000 0.000000
      vertex 2.397000 2.397000 0.000000
    endloop
  endfacet
  facet normal 1.000000 0.000000 0.000000
    outer loop
      vertex 2.397000 2.397000 0.000000
      vertex 2.397000 2.397000 2.397000
      vertex 2.397000 0.000000 2.397000
    endloop
  endfacet
endsolid labeled_cube_diameter
